<svg xmlns="http://www.w3.org/2000/svg" width="48" height="48" viewBox="0 0 48 48"><rect x="0" y="0" width="48" height="48" rx="11" fill="#4FA3DA"></rect>
      <path d="M15 7 H28.5 L36 14.5 V38 a3 3 0 0 1 -3 3 H18 a3 3 0 0 1 -3 -3 V10 a3 3 0 0 1 3 -3 Z" fill="#FFFFFF"></path>
      <path d="M28.5 7 L36 14.5 H31 a2.5 2.5 0 0 1 -2.5 -2.5 Z" fill="#4FA3DA"></path>
      <g fill="#4FA3DA">
        <rect x="19" y="20" width="13" height="2.8" rx="1.4"></rect>
        <rect x="19" y="25.5" width="13" height="2.8" rx="1.4"></rect>
        <rect x="19" y="31" width="8.5" height="2.8" rx="1.4"></rect>
      </g></svg>
